# xmcd
#
# Track frame offsets:
#	150
#	13382
#	31514
#	55485
#	72739
#	92530
#	110703
#	128447
#	145113
#	165217
#	168958
#	187519
#	210000
#	228296
#	245805
#	263394
#	284635
#	308252
#	327500
#	350970
#
# Disc length: 4764 seconds
#
# Revision: 0
# Processed by: cddbd v1.5.1PL0 Copyright (c) Steve Scherf et al.
# Submitted via: dBpowerAMP V4.0
#
DISCID=0f129a14
DTITLE=Layzie Bone - It's Not A Game
DYEAR=2005
DGENRE=Rap
TTITLE0=It's Not A Game (intro)
TTITLE1=There They Go
TTITLE2=Midwest Invasion
TTITLE3=Do Your Thang
TTITLE4=Thug Nation
TTITLE5=I Don't Remember
TTITLE6=Stayin' Alive
TTITLE7=Nothin'
TTITLE8=Connectin' The Plots
TTITLE9=Choppin' Game (skit)
TTITLE10=Way Too Many
TTITLE11=Thugged Out
TTITLE12=2 Step
TTITLE13=She Came To Party
TTITLE14=Do You Want Me
TTITLE15=It's On
TTITLE16=Smokin on Information
TTITLE17=Run Game
TTITLE18=The Movement
TTITLE19=Outro
EXTD=
EXTT0=
EXTT1=
EXTT2=
EXTT3=
EXTT4=
EXTT5=
EXTT6=
EXTT7=
EXTT8=
EXTT9=
EXTT10=
EXTT11=
EXTT12=
EXTT13=
EXTT14=
EXTT15=
EXTT16=
EXTT17=
EXTT18=
EXTT19=
PLAYORDER=
